<mxfile host="Electron" modified="2023-07-31T14:48:21.068Z" agent="Mozilla/5.0 (Windows NT 10.0; Win64; x64) AppleWebKit/537.36 (KHTML, like Gecko) draw.io/21.6.5 Chrome/114.0.5735.243 Electron/25.3.1 Safari/537.36" etag="IN3ETlLHwaE89W3_e2Gy" version="21.6.5" type="device">
  <diagram name="Page-1" id="5SvmHuKXJBpUvMMgy40t">
    <mxGraphModel dx="880" dy="511" grid="1" gridSize="10" guides="1" tooltips="1" connect="1" arrows="1" fold="1" page="1" pageScale="1" pageWidth="1169" pageHeight="827" math="0" shadow="0">
      <root>
        <mxCell id="0" />
        <mxCell id="1" parent="0" />
        <mxCell id="BV5hf1cZSZyRzrNl-DUj-41" value="Business" style="html=1;whiteSpace=wrap;" vertex="1" parent="1">
          <mxGeometry x="70" width="110" height="40" as="geometry" />
        </mxCell>
        <mxCell id="BV5hf1cZSZyRzrNl-DUj-42" value="Owner" style="html=1;whiteSpace=wrap;" vertex="1" parent="1">
          <mxGeometry y="120" width="110" height="40" as="geometry" />
        </mxCell>
        <mxCell id="BV5hf1cZSZyRzrNl-DUj-43" value="Employee" style="html=1;whiteSpace=wrap;" vertex="1" parent="1">
          <mxGeometry x="140" y="120" width="110" height="40" as="geometry" />
        </mxCell>
        <mxCell id="BV5hf1cZSZyRzrNl-DUj-44" value="" style="edgeStyle=elbowEdgeStyle;html=1;endArrow=block;elbow=vertical;endFill=0;dashed=1;rounded=0;entryX=0.5;entryY=1;entryDx=0;entryDy=0;exitX=0.5;exitY=0;exitDx=0;exitDy=0;" edge="1" parent="1" source="BV5hf1cZSZyRzrNl-DUj-42" target="BV5hf1cZSZyRzrNl-DUj-41">
          <mxGeometry width="100" height="75" relative="1" as="geometry">
            <mxPoint x="60" y="120" as="sourcePoint" />
            <mxPoint x="160" y="45" as="targetPoint" />
          </mxGeometry>
        </mxCell>
        <mxCell id="BV5hf1cZSZyRzrNl-DUj-45" value="" style="edgeStyle=elbowEdgeStyle;html=1;endArrow=block;elbow=vertical;endFill=0;dashed=1;rounded=0;entryX=0.5;entryY=1;entryDx=0;entryDy=0;exitX=0.5;exitY=0;exitDx=0;exitDy=0;" edge="1" parent="1" source="BV5hf1cZSZyRzrNl-DUj-43" target="BV5hf1cZSZyRzrNl-DUj-41">
          <mxGeometry width="100" height="75" relative="1" as="geometry">
            <mxPoint x="360" y="135" as="sourcePoint" />
            <mxPoint x="460" y="60" as="targetPoint" />
          </mxGeometry>
        </mxCell>
      </root>
    </mxGraphModel>
  </diagram>
</mxfile>
